<?xml version="1.0" encoding="UTF-8"?>
<svg width="112px" height="39px" viewBox="0 0 112 39" version="1.1" xmlns="http://www.w3.org/2000/svg" xmlns:xlink="http://www.w3.org/1999/xlink">
    <title>m+n</title>
    <g id="Page-1" stroke="none" stroke-width="1" fill="none" fill-rule="evenodd">
        <g id="m+n" transform="translate(0.166, 0.4512)" fill-rule="nonzero">
            <path d="M16.7958984,38.5488281 L8.91210938,10.7841797 L8.67480469,10.7841797 C9.04394531,15.5126953 9.22851562,19.1865234 9.22851562,21.8056641 L9.22851562,38.5488281 L0,38.5488281 L0,0 L13.8691406,0 L21.9111328,27.3691406 L22.1220703,27.3691406 L30.0058594,0 L43.9013672,0 L43.9013672,38.5488281 L34.3300781,38.5488281 L34.3300781,21.6474609 C34.3300781,20.7685547 34.3432617,19.7929688 34.3696289,18.7207031 C34.3959961,17.6484375 34.5146484,15.0205078 34.7255859,10.8369141 L34.4882812,10.8369141 L26.7099609,38.5488281 L16.7958984,38.5488281 Z" id="Path" fill="#000000"></path>
            <path d="M111.139257,38.5488281 L97.4810534,38.5488281 L83.4009753,11.390625 L83.1636706,11.390625 C83.497655,15.6621094 83.6646472,18.9228516 83.6646472,21.1728516 L83.6646472,38.5488281 L74.4361316,38.5488281 L74.4361316,0 L88.0416003,0 L102.068944,26.7890625 L102.227147,26.7890625 C101.981053,22.9042969 101.858007,19.7841797 101.858007,17.4287109 L101.858007,0 L111.139257,0 L111.139257,38.5488281 Z" id="Path" fill="#000000"></path>
            <polygon id="Path" fill="#FF0000" points="53.8645796 24.5286654 39.6718085 24.5286654 39.6718085 14.3037658 53.8645796 14.3037658 53.8645796 0.301757812 64.1276318 0.301757812 64.1276318 14.3037658 78.3204029 14.3037658 78.3204029 24.5286654 64.1276318 24.5286654 64.1276318 38.3017578 53.8645796 38.3017578"></polygon>
        </g>
    </g>
</svg>